<?xml version="1.0" encoding="iso-8859-1"?>
<!-- Generator: Adobe Illustrator 19.0.0, SVG Export Plug-In . SVG Version: 6.00 Build 0)  -->
<svg version="1.1" id="Layer_1" xmlns="http://www.w3.org/2000/svg" xmlns:xlink="http://www.w3.org/1999/xlink" x="0px" y="0px"
	 viewBox="0 0 512 512" style="enable-background:new 0 0 512 512;" xml:space="preserve">
<g>
	<g>
		<g>
			<path d="M477.406,201.621C499.714,179.316,512,149.657,512,118.108c0-31.547-12.286-61.206-34.594-83.513
				c-22.305-22.307-51.964-34.594-83.511-34.594c-31.547,0-61.206,12.287-83.512,34.594c-23.875,23.874-33.789,50.289-44.285,78.252
				c-3.202,8.534-6.438,17.144-10.117,25.868c-59.55-46.29-117.963-73.633-158.046-73.633c-17.715,0-31.782,5.084-41.807,15.111
				c-21.199,21.199-19.952,60.959,3.508,111.961c6.068,13.186,13.444,26.799,21.972,40.625
				c-14.197,7.063-27.097,16.351-38.457,27.71C15.325,288.316,0,325.316,0,364.668c0,39.355,15.325,76.352,43.151,104.179
				c27.827,27.827,64.826,43.152,104.179,43.152c39.355,0,76.352-15.326,104.179-43.152c11.353-11.353,20.626-24.235,27.683-38.404
				c41.818,25.827,80.796,40.544,110.792,40.544c0.004,0,0.007,0,0.011,0c17.719-0.002,31.787-5.088,41.813-15.113
				c17.991-17.99,19.973-48.871,5.729-89.301c-11.682-33.158-34.317-72.031-64.251-110.55c8.726-3.679,17.335-6.914,25.87-10.117
				C427.119,235.408,453.532,225.495,477.406,201.621z M236.424,453.76c-23.798,23.8-55.438,36.905-89.094,36.905
				c-33.654,0-65.296-13.105-89.093-36.905c-23.797-23.797-36.902-55.436-36.902-89.092c0-33.654,13.106-65.296,36.904-89.094
				c10.297-10.296,22.071-18.597,35.069-24.756c4.005,5.892,8.201,11.804,12.58,17.724c-12.14,5.219-23.099,12.646-32.567,22.115
				c-40.808,40.811-40.808,107.215,0.001,148.026c20.404,20.401,47.207,30.602,74.01,30.602s53.608-10.201,74.014-30.604
				c9.469-9.474,16.876-20.439,22.082-32.548c5.94,4.398,11.857,8.601,17.736,12.601C255.01,431.712,246.717,443.469,236.424,453.76
				z M114.893,287.879c1.404-0.59,3.078-1.084,4.717-1.498c15.097,18.882,31.929,37.675,50.132,55.878
				c18.382,18.382,37.219,35.233,56.003,50.259c-0.534,1.596-0.988,2.944-1.167,3.469c-4.177,10.336-10.342,19.624-18.323,27.61
				c-16.247,16.244-37.583,24.366-58.925,24.364c-21.338-0.002-42.682-8.123-58.925-24.364c-32.49-32.491-32.49-85.362,0-117.852
				C96.107,298.041,105.022,292.028,114.893,287.879z M417.415,373.663c11.161,31.679,10.914,55.518-0.692,67.125
				c-5.881,5.882-14.872,8.863-26.73,8.866c-0.003,0-0.006,0-0.008,0c-28.202,0-67.134-16.014-108.969-43.357
				c-0.456-0.352-0.938-0.671-1.454-0.95c-31.092-20.482-63.734-47.174-94.733-78.173c-19.074-19.074-36.566-38.773-52.028-58.476
				c-0.277-0.419-0.59-0.806-0.921-1.179c-9.192-11.778-17.655-23.551-25.291-35.191c-0.258-0.47-0.552-0.912-0.868-1.331
				c-10.624-16.316-19.618-32.356-26.701-47.758C59.843,141.554,57,109.496,71.216,95.281c5.88-5.882,14.869-8.863,26.722-8.863
				c35.799,0,92.303,27.493,148.795,72.15c-9.934,19.249-21.862,36.164-36.85,52.261c-0.524,0.562-1.068,1.128-1.602,1.69
				c-0.55,0.581-1.091,1.163-1.65,1.74c-1.115,1.156-2.252,2.313-3.412,3.475c-1.921,1.919-2.982,4.431-3.111,7.004
				c-0.102,2.002,0.358,4.042,1.414,5.871c6.604,11.443,14.722,22.639,23.88,33.143c16.221,18.605,35.727,35.031,55.995,46.733
				c0.393,0.227,0.799,0.417,1.21,0.59c0.044,0.018,0.085,0.037,0.129,0.054c0.414,0.169,0.833,0.31,1.259,0.425
				c0.01,0.002,0.018,0.002,0.026,0.004c0.433,0.114,0.87,0.201,1.311,0.258c0.013,0.002,0.027,0.004,0.041,0.006
				c0.437,0.057,0.876,0.083,1.315,0.083c0.014,0.002,0.027,0.004,0.039,0.004c0.026,0,0.052-0.004,0.077-0.004
				c0.293-0.002,0.586-0.017,0.877-0.042c0.047-0.004,0.093-0.009,0.14-0.015c0.31-0.031,0.619-0.075,0.925-0.133
				c0.017-0.004,0.033-0.006,0.049-0.009c0.668-0.133,1.324-0.327,1.96-0.586c0.015-0.006,0.03-0.015,0.046-0.021
				c0.286-0.118,0.566-0.25,0.842-0.394c0.055-0.027,0.109-0.059,0.162-0.087c0.242-0.129,0.477-0.269,0.707-0.419
				c0.06-0.037,0.117-0.075,0.176-0.114c0.238-0.16,0.469-0.332,0.696-0.512c0.039-0.031,0.079-0.059,0.116-0.09
				c0.267-0.219,0.525-0.448,0.773-0.695c18.191-18.191,37.158-32.16,59.166-43.515
				C383.487,303.268,406.089,341.517,417.415,373.663z M312.745,265.125c-0.151,0.109-0.302,0.219-0.453,0.327
				c-1.068,0.767-2.137,1.546-3.209,2.341c-0.397,0.293-0.794,0.592-1.19,0.89c-0.809,0.608-1.617,1.222-2.429,1.848
				c-0.531,0.411-1.063,0.821-1.591,1.235c-0.668,0.523-1.337,1.054-2.007,1.589c-0.615,0.492-1.231,0.984-1.843,1.484
				c-0.58,0.473-1.162,0.958-1.744,1.44c-0.674,0.558-1.348,1.115-2.018,1.683c-0.539,0.454-1.08,0.925-1.619,1.39
				c-0.693,0.597-1.389,1.189-2.079,1.796c-0.615,0.542-1.234,1.102-1.852,1.654c-0.603,0.542-1.209,1.073-1.81,1.621
				c-1.224,1.115-2.451,2.252-3.681,3.412c-12.375-7.931-24.285-17.734-35.018-28.656c-8.201-8.342-15.704-17.339-22.193-26.672
				c-1.318-1.896-2.61-3.802-3.842-5.723c2.105-2.227,4.145-4.471,6.142-6.732c0.153-0.171,0.31-0.344,0.461-0.514
				c0.811-0.921,1.603-1.845,2.396-2.773c0.26-0.304,0.527-0.608,0.783-0.912c0.702-0.827,1.391-1.661,2.079-2.494
				c0.344-0.417,0.692-0.833,1.033-1.25c0.602-0.735,1.193-1.477,1.783-2.217c0.43-0.54,0.861-1.077,1.281-1.617
				c0.496-0.631,0.988-1.267,1.476-1.902c0.537-0.698,1.067-1.394,1.59-2.09c0.371-0.494,0.74-0.988,1.107-1.482
				c0.706-0.953,1.398-1.904,2.08-2.852c0.188-0.26,0.378-0.521,0.563-0.781c20.123-28.202,30.068-54.674,39.132-78.826
				c10.081-26.858,18.786-50.053,39.398-70.662c18.276-18.279,42.576-28.347,68.425-28.347c25.848,0,50.149,10.068,68.425,28.345
				c18.279,18.278,28.344,42.58,28.344,68.426c0,25.849-10.066,50.151-28.345,68.426c-20.608,20.609-43.804,29.316-70.66,39.396
				C367.481,235.004,340.979,244.959,312.745,265.125z"/>
			<path d="M431.476,52.679c-29.464-16.957-66.855-11.986-90.934,12.092c-1.123,1.125-2.227,2.286-3.284,3.45
				c-3.961,4.361-3.634,11.107,0.726,15.068c2.044,1.856,4.609,2.771,7.168,2.771c2.904,0,5.796-1.179,7.9-3.496
				c0.832-0.918,1.706-1.834,2.584-2.715c17.266-17.264,44.078-20.832,65.201-8.68c5.106,2.942,11.627,1.181,14.566-3.926
				S436.582,55.617,431.476,52.679z"/>
			<path d="M333.885,90.934c-5.176-2.817-11.653-0.898-14.465,4.278c-0.092,0.166-0.191,0.363-0.25,0.485
				c-2.634,5.269-0.498,11.677,4.771,14.311c1.532,0.767,3.159,1.13,4.763,1.13c3.913,0,7.679-2.16,9.548-5.9
				c0.011-0.019,0.029-0.057,0.048-0.096C340.913,100.01,338.977,93.7,333.885,90.934z"/>
			<path d="M316.745,378.334c-5.056-3.023-11.607-1.375-14.63,3.679c-3.023,5.056-1.376,11.607,3.679,14.63
				c6.847,4.096,13.69,7.904,20.335,11.323c5.303,2.732,19.11,9.205,33.416,14.163c1.156,0.4,2.335,0.592,3.494,0.592
				c4.419,0,8.551-2.767,10.078-7.178c1.93-5.567-1.02-11.644-6.587-13.572c-13.172-4.567-25.8-10.482-30.64-12.976
				C329.645,385.784,323.203,382.197,316.745,378.334z"/>
			<path d="M392.684,428.447c0.485,0,0.976-0.033,1.47-0.1c0.478-0.067,0.959-0.148,1.416-0.238
				c5.782-1.13,9.553-6.732,8.424-12.513c-1.129-5.782-6.731-9.559-12.513-8.425c-0.077,0.015-0.158,0.029-0.239,0.042
				c-5.837,0.804-9.915,6.186-9.111,12.024C382.867,424.578,387.439,428.447,392.684,428.447z"/>
		</g>
	</g>
</g>
<g>
</g>
<g>
</g>
<g>
</g>
<g>
</g>
<g>
</g>
<g>
</g>
<g>
</g>
<g>
</g>
<g>
</g>
<g>
</g>
<g>
</g>
<g>
</g>
<g>
</g>
<g>
</g>
<g>
</g>
</svg>
