<?xml version="1.0" encoding="iso-8859-1"?>
<!-- Generator: Adobe Illustrator 19.0.0, SVG Export Plug-In . SVG Version: 6.00 Build 0)  -->
<svg version="1.1" id="Layer_1" xmlns="http://www.w3.org/2000/svg" xmlns:xlink="http://www.w3.org/1999/xlink" x="0px" y="0px"
	 viewBox="0 0 512 512" style="enable-background:new 0 0 512 512;" xml:space="preserve">
<g>
	<g>
		<path d="M405.344,378.656c2.422,0,4.812,0.422,7.094,1.219l14.219,5.031V288H224v-75.578l-14.219,5.023
			c-2.289,0.812-4.68,1.219-7.117,1.219c-11.758,0-21.328-9.57-21.328-21.328c0-11.766,9.57-21.336,21.328-21.336
			c2.438,0,4.828,0.406,7.117,1.219L224,182.25V85.336H121.75l5.031,14.219c0.812,2.289,1.219,4.68,1.219,7.109
			C128,118.43,118.43,128,106.664,128c-11.758,0-21.328-9.57-21.328-21.336c0-2.43,0.406-4.82,1.219-7.109l5.023-14.219H0V288
			v21.344v75.562l14.219-5.031c2.289-0.797,4.68-1.219,7.117-1.219c11.758,0,21.328,9.578,21.328,21.344s-9.57,21.344-21.328,21.344
			c-2.438,0-4.828-0.422-7.117-1.219L0,415.094V512h202.664H224h202.656v-96.906l-14.219,5.031
			c-2.281,0.797-4.672,1.219-7.094,1.219C393.562,421.344,384,411.766,384,400S393.562,378.656,405.344,378.656z M21.336,106.664H64
			c0,23.531,19.141,42.672,42.664,42.672c23.531,0,42.672-19.141,42.672-42.672h53.328v48c-23.523,0-42.664,19.141-42.664,42.672
			C160,220.859,179.141,240,202.664,240v48h-75.578l5.031,14.219c0.805,2.281,1.219,4.688,1.219,7.125
			c0,11.75-9.57,21.312-21.336,21.312s-21.336-9.562-21.336-21.312c0-2.438,0.414-4.844,1.219-7.125L96.914,288H21.336V106.664z
			 M216.891,420.125l-14.227-5.031v75.562H21.336v-48C44.859,442.656,64,423.531,64,400s-19.141-42.656-42.664-42.656v-48h24.883
			h23.117C69.336,332.859,88.477,352,112,352s42.664-19.141,42.664-42.656h48v75.562l14.227-5.031
			c2.281-0.797,4.68-1.219,7.109-1.219c11.766,0,21.336,9.578,21.336,21.344s-9.57,21.344-21.336,21.344
			C221.57,421.344,219.172,420.922,216.891,420.125z M405.344,442.656v48H224v-48c23.523,0,42.664-19.125,42.664-42.656
			S247.523,357.344,224,357.344v-48h181.344v48c-23.531,0-42.688,19.125-42.688,42.656S381.812,442.656,405.344,442.656z"/>
	</g>
</g>
<g>
	<g>
		<path d="M490.656,90.664c2.438,0,4.844,0.414,7.125,1.219L512,96.914V0H288v69.336c-23.523,0-42.664,19.141-42.664,42.664
			s19.141,42.664,42.664,42.664V224h69.344c0,23.523,19.125,42.664,42.656,42.664s42.656-19.141,42.656-42.664H512v-96.914
			l-14.219,5.031c-2.281,0.805-4.688,1.219-7.125,1.219c-11.75,0-21.312-9.57-21.312-21.336S478.906,90.664,490.656,90.664z
			 M490.656,154.664v48h-75.562l5.031,14.227c0.797,2.281,1.219,4.68,1.219,7.109c0,11.766-9.578,21.336-21.344,21.336
			s-21.344-9.57-21.344-21.336c0-2.43,0.422-4.828,1.219-7.109l5.031-14.227h-75.562v-75.578l-14.234,5.031
			c-2.281,0.805-4.672,1.219-7.109,1.219c-11.766,0-21.336-9.57-21.336-21.336s9.57-21.336,21.336-21.336
			c2.438,0,4.828,0.414,7.109,1.219l14.234,5.031V21.336h181.312v48C467.141,69.336,448,88.477,448,112
			S467.141,154.664,490.656,154.664z"/>
	</g>
</g>
<g>
</g>
<g>
</g>
<g>
</g>
<g>
</g>
<g>
</g>
<g>
</g>
<g>
</g>
<g>
</g>
<g>
</g>
<g>
</g>
<g>
</g>
<g>
</g>
<g>
</g>
<g>
</g>
<g>
</g>
</svg>
