<?xml version="1.0" encoding="iso-8859-1"?>
<!-- Generator: Adobe Illustrator 19.0.0, SVG Export Plug-In . SVG Version: 6.00 Build 0)  -->
<svg version="1.1" id="Capa_1" xmlns="http://www.w3.org/2000/svg" xmlns:xlink="http://www.w3.org/1999/xlink" x="0px" y="0px"
	 viewBox="0 0 60 60" style="enable-background:new 0 0 60 60;" xml:space="preserve">
<path d="M47.323,5.28C44.835,1.925,41.012,0,36.834,0h-9.679c-7.2,0-13.059,5.858-13.059,13.059v2.964c-1.12,0.115-2,1.053-2,2.203
	v1.809c-1.128,0.168-2,1.134-2,2.309v3.313c0,1.292,1.052,2.344,2.344,2.344h9.312c1.292,0,2.344-1.051,2.344-2.344v-3.313
	c0-1.175-0.872-2.141-2-2.309v-1.809c0-1.15-0.88-2.088-2-2.203v-2.964C20.097,9.167,23.263,6,27.155,6h9.679
	c2.259,0,4.325,1.041,5.67,2.854c1.345,1.814,1.74,4.094,1.08,6.27l-9.692,33.93C32.992,52.013,30.285,54,27.155,54
	c-3.893,0-7.059-3.167-7.059-7.059v-1.964c1.12-0.115,2-1.053,2-2.203v-5.809c1.128-0.168,2-1.134,2-2.309v-3.313
	c0-1.292-1.052-2.344-2.344-2.344H12.44c-1.292,0-2.344,1.051-2.344,2.344v3.313c0,1.175,0.872,2.141,2,2.309v5.809
	c0,1.15,0.88,2.088,2,2.203v1.964C14.097,54.142,19.955,60,27.155,60c5.791,0,10.813-3.723,12.501-9.281l9.674-33.867
	C50.543,12.854,49.812,8.636,47.323,5.28z"/>
<g>
</g>
<g>
</g>
<g>
</g>
<g>
</g>
<g>
</g>
<g>
</g>
<g>
</g>
<g>
</g>
<g>
</g>
<g>
</g>
<g>
</g>
<g>
</g>
<g>
</g>
<g>
</g>
<g>
</g>
</svg>
