<svg xmlns="http://www.w3.org/2000/svg" viewBox="0 0 401.49 401.43"><title>Fichier 2</title><g id="Calque_2" data-name="Calque 2"><g id="Calque_1-2" data-name="Calque 1"><path d="M346.23,1C329.09,4.51,316,14.43,304.71,27.1c-6.2,6.93-12.19,14-18.35,21.16-19.71-11.43-40.11-19-62.18-22.18s-43.69-1-65.32,3.68l-1.8.47-21.13,7.54-2.48.15L94.72,63,82.66,74.53c-2.13,2.9-4.26,5.79-6.36,8.66L58,108.05,46.88,132.78A219.42,219.42,0,0,0,40,166.19a167.22,167.22,0,0,0,.36,45.44l.48,6.83a194.94,194.94,0,0,0,22.19,55c-2.36,2.16-4.41,4.07-6.51,5.93C43.63,290.73,30.54,301.84,18,313.55,4.69,326-1.69,341.42.38,359.81,1.71,371.58,6,382.56,14.94,390.2c10,8.53,22.62,12,35.88,11.09,15.36-1.06,27.88-8.42,38.34-19.34,5.41-5.65,10.35-11.75,15.53-17.63,8.68-9.86,17.39-19.72,25.9-29.37,68.51,27,131.85,20.17,184.78-32.06S376.18,187.2,349.8,118.44a21.55,21.55,0,0,1,1.53-1.64c8.15-7.13,16.4-14.15,24.45-21.39,11.75-10.57,20.69-23,24.36-38.67C408,22.92,380.16-5.87,346.23,1ZM124.05,327.19c3-5.49,6.47-10.35,8.44-15.75,2.08-5.7,6.21-9.46,9.76-14.59,11.89,9.77,17.47,23.06,24.81,36.22.57,2.89,1.25,6.3,2.1,10.61C153.16,340.94,138.74,335.14,124.05,327.19Zm213.21-54.61-.87-.34a26.77,26.77,0,0,1,.33-4.93c.43-1.75,1.45-3.33,2-5.05a17,17,0,0,0-.31-12.83c-1.82,5-4.09,9.81-5.21,14.86-.77,3.47.05,7.3.79,11.21-23.83,36.09-57.16,58.79-100.62,68.59,1.21-8.91,1.28-16.92,7.68-24l9.15,3.36L241,305.64c-7,4.91-11.72,11.49-15.85,19,5,5.38,6,12,6.42,19.87l-18.48,2.38-1-1.15,4.17-10.29c-5.28,2.16-6.14,7.16-8.86,12.34l-1.71-4.17-.94.65c-.27.88-.55,1.76-1,3.37l-26.28-1.79,3.6-5.12c.66-2.59,1.26-4.93,1.86-7.27l-.64.36c-2.23-6.3-3.75-13-6.89-18.81a76.09,76.09,0,0,0-11.89-15.68c-6.69-7.1-12.57-14.63-16.42-23.63a17.49,17.49,0,0,1-.6-3.42c7.08,1.61,12.49,5.18,17.53,9.53,2.88,2.49,6.16,4.56,8.81,7.27,2.15,2.19,4.31,4.8,5.27,7.64,3.45,10.18,10.79,17.77,16.25,26.6l1-.45c-2.18-6.74-4.25-13.52-6.57-20.21s-4.84-13.16-6.85-20.07c5.19,5.36,8.57,12.12,13.47,18-3.18-9.17-4.2-18.52-4-28.84l9.24,1.86c2-13,4-25.83,5.92-38.65l-1.06-.28,4.22-6.06,6.33,4.22-.57,3.44.53.32,2.42-3.54c1.2.41,2.5.87,3.34,1.17-1.69,8.49-3.29,16.51-5.13,25.73-.2,3.32-.48,7.94-.78,12.84L218,274.1c-.11,2-.21,4-.31,5.91l.69.09c.55-2.34,1.28-4.65,1.62-7,.58-4,2.41-7.57,5.66-9.62,4.92-3.11,5.61-8.25,8.18-13.44-4.8,1.54-5.7,8.39-12.26,6.79,1.86-4.08,3.47-7.62,5-11-.21-2.1-.41-4-.6-6l1-.39c1.68,3.54,2.18,8.28,7.56,8.08,1.22.9,2.44,1.79,3.65,2.7l.72-.68c.48,1.55,1,3.1,1.44,4.69l-1.84,3.57c3.67,7.93,1.77,12.65-6.23,14.45.54-2.21,1.1-4.2,1.51-6.22s.72-4.19,1.22-7.18l-4.94,2.35c-4,11-7.91,21.59-12.26,33.44,3.33-3.15,5.89-5.57,8.56-8.08l4,1.28,10.87-10.19c1.21,2.66,2.35,5.14,3.62,7.94l-2.5,5.11,4.59-1.76c2.14,3.3,4.41,6.81,6.71,10.3a27.3,27.3,0,0,0,2.61,3.64,15.57,15.57,0,0,1,4.38,9.79c.34,4,1.12,8,5.4,10.29-1.91-8.12-3.8-16.11-5.66-24,2.6-1.83,5.68-3.32,7.79-5.68s3.15-5.85,5-8.55a13.54,13.54,0,0,1,5.2-4.14L273.34,290l2.39,5.29,7.44-4.13c2.88,3.95,2.69,5.48-.12,9.56-2.29,3.34-4.3,6.87-6.83,10.95,5.86,1.2,2.87,9.78,10.91,8.8-1.8-4.28-3.4-8.1-5.33-12.71l5.62-4.89c-2.42-4.61,3.21-10.39-2.07-15.25l-7.53.83c2.12-4.55,3.92-8.39,5.88-12.59,3.87.79,4.76,4.7,5.61,8,2.32,9,8.18,15.6,14.09,23.31l7-6c.47-9.1.46-17.06,1.4-24.9s-3-13.28-7.64-18.63c-.76-.88-1.58-1.71-2.25-2.44-1.14-3.17-.28-5.71,1.72-8,1.2-1.39,2.15-3.06,3.55-4.19,4.36-3.53,6.83-7.7,5-13.61,4.4-2.19,4.65-5.86,4.45-9.88a70.51,70.51,0,0,1,.16-10.48c.19-2,1.22-4,2.23-7,6.34,7.45,12.38,13.8,17.51,20.8s6.69,16.4,14.32,22.67Zm13.18-29.79a58.7,58.7,0,0,1-3.9-5.3c-1.73-3-3.34-6.15-4.79-9.33a33.1,33.1,0,0,0-8.37-11.62c-2.32-2-3.75-5-5.77-7.47-2.62-3.15-5.43-6.15-8.4-9.49-3,2.74-5.52,4.87-7.8,7.26a107.66,107.66,0,0,1-12,10.91c-3.13,2.42-4.78,7.49-5.79,11.69-1.3,5.37-3.18,9.61-8.48,12-1.5.69-2.48,2.63-3.57,4.08-4.61,6.12-9.14,12.27-15.87,16.4-1.56,1-2.44,3.05-3.62,4.62L250.3,282.06l-5.92-4.44c2.47-6.23,4.85-12.22,7.23-18.2l-5.33,2.51c.14-2.46.25-4.29.43-7.4l4.53,3.73c-2.64-2.56-5.18-5.22-7.94-7.65a42.81,42.81,0,0,0-5.52-3.47l-3.32.27a22,22,0,0,1-3.34-3.86,21,21,0,0,1-2.38-4.71c-1-2.83-4.48-5.17-7.37-6.83-3.64-2.11-7.81-3.31-12.77-5.32-2.53,2.68-5.65,6.05-8.84,9.36-1.37,1.42-2.65,3.41-4.35,3.95-7.23,2.31-11.43,8.19-16.49,13.1a13.38,13.38,0,0,1-2.65,2.17c-5.83,3.33-11.7,6.59-19.09,10.73-2.05-1-5.46-2.89-9.08-4.27s-7.53-2.29-11.27-3.39c-1.23,1.71-2.08,2.9-3,4.18l-3.62-.6a10.31,10.31,0,0,1-2.76,1.86c-5,1.41-6.91,5.05-8.08,9.74-.56,2.22-2.38,4.13-4.26,5.85-.56,1.89-1.12,3.77-1.7,5.75l-5,.63L100.78,299l-9.34,4.86L73.37,283.61a8.71,8.71,0,0,1,1-1.8,12.49,12.49,0,0,1,1.48-1.16l12.82,5.19.75-1.26a30.82,30.82,0,0,1-19.63-16.29l-4.22,2.28C51.45,249.29,43,222.81,41.72,195A159.43,159.43,0,0,1,92.57,70.24c.49-.46,1-.92,1.48-1.36C152.8,15.19,243.14,13.49,304.4,65,366.19,117,370.75,197.63,350.44,242.79Z"/><path d="M89.65,233.88c2-1.26,3.89-2.83,6-3.75,7.47-3.17,15.09-6,22.54-9.17,6.1-2.63,12-5.85,18.09-8.4,7.8-3.25,13.11-8.78,16.88-16.2,4.66-9.19,9.58-18.25,14.43-27.34a12.69,12.69,0,0,1,2.49-3.69c10.46-9.23,15.42-22.31,23.9-33.06l-8.47-7.51c-3.64,3.2-8.1,6.64-11.91,10.69-1.81,1.91-2.84,4.87-3.41,7.54-.86,4-2.8,6.79-6.67,7.9-4.21,1.2-7.21,3.86-10.09,7-9,9.78-18.25,19.43-27.37,29.15a90.84,90.84,0,0,0-7.7,8.51c-2.07,2.85-3.44,6.2-5.57,10.18L109,201c16.78-14.47,30.4-31.06,45.15-46.53a18.56,18.56,0,0,0,4.83-8.95c2.26-13,8.05-24.09,16.76-33.86,2.53-2.84,4.64-6.06,6.89-9-4.15-6-2.88-14.91,2.6-19.42,4.15-3.4,9.06-3.14,13.11.39,2,1.7,4.66,2.62,6.39,4.48,2.33,2.51,4.06,5.6,6.56,9.15,24.2,1.31,48.12,9,71.68,16.91-.67,5.26-1.23,9.53-1.92,14.88,6.52-2.15,11.66-3.83,16.79-5.54,6-2,12-3.83,17.9-6.14,2.91-1.15,5.47-3.22,8.63-5.14,3.1,1.95,3.5,3.08,2,8.64l-5-3.62-38.31,13c3.08,4.82,5.5,9.35,3.65,15.71-2,.85-4.5,2-7.09,3-6,2.21-7.06,3.64-6.67,9.92.18,2.8.61,5.59,1.06,9.64L245.1,146.21h-5.87l-3.08-5.37.47-.31-5.36-4.14c-1.88,5.17-3.49,10.12-5.49,14.9-1.65,3.93-4.82,6.15-9.11,7s-8.71,2-13.61,3.11c-1.85,6.29-3.7,12.53-5.54,18.78l1.16,1a33.21,33.21,0,0,0,5.29-1.54c7.66-3.64,15.23-7.44,22.86-11.16,5.58-2.72,11.22-4,18.16.05a66.53,66.53,0,0,1-6.54,4.65q-50.9,27.06-101.84,54c-6.76,3.59-13.41,7.39-20.32,10.66a23.54,23.54,0,0,1-9.46,2.13,46.35,46.35,0,0,1-11.31-1.6c-2.07-.51-3.9-2-5.83-3.05Z"/><path d="M328.63,246.79l-2.31,4.61-7.17-12.54c1.23-4.08,2.9-7.8,3.35-11.67.42-3.56-.48-7.27-.23-11a14,14,0,0,1,3.87,13.16A25.31,25.31,0,0,0,328.63,246.79Z"/><path d="M273,305c-.38,4.59-.73,9-1.09,13.42-3.66-3.62-5.51-14.29-3.25-20.36Z"/></g></g></svg>