<?xml version="1.0" encoding="iso-8859-1"?>
<!-- Generator: Adobe Illustrator 19.0.0, SVG Export Plug-In . SVG Version: 6.00 Build 0)  -->
<svg version="1.1" id="Capa_1" xmlns="http://www.w3.org/2000/svg" xmlns:xlink="http://www.w3.org/1999/xlink" x="0px" y="0px"
	 viewBox="0 0 512 512" style="enable-background:new 0 0 512 512;" xml:space="preserve">
<g>
	<g>
		<path d="M256,105c-83.262,0-151,67.738-151,151c0,56.041,30.688,105.046,76.14,131.101v-64.723l-31.14-30V241h30v38.622l31.14,30
			v90.576c9.625,3.001,19.662,5.056,30,6.071V253.135C215.22,246.506,196,222.957,196,195c0-33.084,26.916-60,60-60s60,26.916,60,60
			c0,27.855-19.082,51.335-44.86,58.062v153.182c10.239-1.024,20.181-3.072,29.72-6.046v-90.576l31.14-30V241h30v51.378l-31.14,30
			v64.723C376.312,361.046,407,312.041,407,256C407,172.738,339.262,105,256,105z"/>
	</g>
</g>
<g>
	<g>
		<path d="M256,165c-16.542,0-30,13.458-30,30s13.458,30,30,30s30-13.458,30-30S272.542,165,256,165z"/>
	</g>
</g>
<g>
	<g>
		<path d="M475.701,202.384c-5.465-22.441-14.29-43.722-26.33-63.496l21.481-30.073l-67.468-67.469l-30.057,21.469
			c-19.743-12.032-40.991-20.857-63.401-26.334L303.847,0h-95.414l-6.08,36.48c-22.364,5.465-43.581,14.271-63.294,26.271
			l-30.245-21.604l-67.468,67.468l21.591,30.227c-11.992,19.685-20.798,40.867-26.275,63.201L0,208.152v95.414l36.591,6.099
			c5.446,22.338,14.226,43.534,26.191,63.232l-21.634,30.288l67.468,67.469l30.184-21.56c19.698,12.025,40.902,20.858,63.262,26.354
			L208.153,512h95.414l6.068-36.41c22.413-5.445,43.674-14.243,63.434-26.25l30.117,21.513l67.468-67.467l-21.438-30.014
			c12.066-19.757,20.918-41.026,26.415-63.464l36.369-6.06v-95.414L475.701,202.384z M256,437c-99.804,0-181-81.196-181-181
			S156.196,75,256,75s181,81.196,181,181S355.804,437,256,437z"/>
	</g>
</g>
<g>
</g>
<g>
</g>
<g>
</g>
<g>
</g>
<g>
</g>
<g>
</g>
<g>
</g>
<g>
</g>
<g>
</g>
<g>
</g>
<g>
</g>
<g>
</g>
<g>
</g>
<g>
</g>
<g>
</g>
</svg>
